<?xml version="1.0" encoding="utf-8"?>
<svg width="1300px" height="235px" viewBox="0 0 1300 235" version="1.1" xmlns="http://www.w3.org/2000/svg">
  <rect fill="#000000" width="1300" height="235" stroke="none" stroke-width="1" fill-rule="evenodd" style=""/>
  <g transform="matrix(1, 0, 0, 1, 0.814999, -52.508005)">
    <path d="M 63.301 75.051 L 63.301 72.508 L 76.973 72.508 L 76.973 75.051 L 63.301 75.051 Z M 161.728 75.051 L 161.728 72.508 L 175.4 72.508 L 175.4 75.051 L 161.728 75.051 Z M 358.545 75.051 L 358.545 72.508 L 372.217 72.508 L 372.217 75.051 L 358.545 75.051 Z M 571.785 75.051 L 571.785 72.508 L 585.457 72.508 L 585.457 75.051 L 571.785 75.051 Z M 768.602 75.051 L 768.602 72.508 L 782.274 72.508 L 782.274 75.051 L 768.602 75.051 Z M 801.411 75.051 L 801.411 72.508 L 815.083 72.508 L 815.083 75.051 L 801.411 75.051 Z M 932.629 75.051 L 932.629 72.508 L 946.3 72.508 L 946.3 75.051 L 932.629 75.051 Z M 1031.037 75.051 L 1031.037 72.508 L 1044.709 72.508 L 1044.709 75.051 L 1031.037 75.051 Z" style="fill: rgb(255, 192, 203);"/>
    <path style="fill: rgb(255, 192, 203);"/>
    <path d="M 58.536 103.242 C 55.574 103.242 53.275 102.15 51.639 99.968 C 50.003 97.785 49.185 94.702 49.185 90.719 C 49.185 86.79 50.003 83.748 51.639 81.593 C 53.275 79.437 55.574 78.36 58.536 78.36 L 59.193 78.36 L 59.193 80.821 L 58.81 80.821 C 56.649 80.821 54.984 81.686 53.813 83.418 C 52.642 85.15 52.056 87.583 52.056 90.719 C 52.056 93.909 52.642 96.383 53.813 98.143 C 54.984 99.901 56.649 100.781 58.81 100.781 L 59.193 100.781 L 59.193 103.242 L 58.536 103.242 Z M 63.301 103.051 L 63.301 100.508 L 76.973 100.508 L 76.973 103.051 L 63.301 103.051 Z M 81.1 103.242 L 81.1 100.781 L 81.483 100.781 C 83.643 100.781 85.309 99.901 86.48 98.143 C 87.651 96.383 88.237 93.909 88.237 90.719 C 88.237 87.583 87.651 85.15 86.48 83.418 C 85.309 81.686 83.643 80.821 81.483 80.821 L 81.1 80.821 L 81.1 78.36 L 81.756 78.36 C 84.727 78.36 87.029 79.437 88.66 81.593 C 90.292 83.748 91.108 86.79 91.108 90.719 C 91.108 94.702 90.292 97.785 88.66 99.968 C 87.029 102.15 84.727 103.242 81.756 103.242 L 81.1 103.242 Z M 150.738 104.746 L 150.738 76.856 L 153.581 76.856 L 153.581 104.746 L 150.738 104.746 Z M 183.547 104.746 L 183.547 76.856 L 186.391 76.856 L 186.391 104.746 L 183.547 104.746 Z M 347.554 104.746 L 347.554 76.856 L 350.398 76.856 L 350.398 104.746 L 347.554 104.746 Z M 380.364 104.746 L 380.364 76.856 L 383.207 76.856 L 383.207 104.746 L 380.364 104.746 Z M 567.002 103.242 C 564.039 103.242 561.74 102.15 560.104 99.968 C 558.468 97.785 557.65 94.702 557.65 90.719 C 557.65 86.79 558.468 83.748 560.104 81.593 C 561.74 79.437 564.039 78.36 567.002 78.36 L 567.658 78.36 L 567.658 80.821 L 567.275 80.821 C 565.115 80.821 563.449 81.686 562.278 83.418 C 561.107 85.15 560.521 87.583 560.521 90.719 C 560.521 93.909 561.107 96.383 562.278 98.143 C 563.449 99.901 565.115 100.781 567.275 100.781 L 567.658 100.781 L 567.658 103.242 L 567.002 103.242 Z M 571.785 103.051 L 571.785 100.508 L 585.457 100.508 L 585.457 103.051 L 571.785 103.051 Z M 589.565 103.242 L 589.565 100.781 L 589.948 100.781 C 592.108 100.781 593.774 99.901 594.945 98.143 C 596.116 96.383 596.702 93.909 596.702 90.719 C 596.702 87.583 596.116 85.15 594.945 83.418 C 593.774 81.686 592.108 80.821 589.948 80.821 L 589.565 80.821 L 589.565 78.36 L 590.222 78.36 C 593.193 78.36 595.495 79.437 597.126 81.593 C 598.757 83.748 599.573 86.79 599.573 90.719 C 599.573 94.702 598.757 97.785 597.126 99.968 C 595.495 102.15 593.193 103.242 590.222 103.242 L 589.565 103.242 Z M 757.611 104.746 L 757.611 76.856 L 760.455 76.856 L 760.455 104.746 L 757.611 104.746 Z M 796.628 103.242 C 793.665 103.242 791.366 102.15 789.73 99.968 C 788.094 97.785 787.276 94.702 787.276 90.719 C 787.276 86.79 788.094 83.748 789.73 81.593 C 791.366 79.437 793.665 78.36 796.628 78.36 L 797.284 78.36 L 797.284 80.821 L 796.901 80.821 C 794.741 80.821 793.075 81.686 791.904 83.418 C 790.733 85.15 790.147 87.583 790.147 90.719 C 790.147 93.909 790.733 96.383 791.904 98.143 C 793.075 99.901 794.741 100.781 796.901 100.781 L 797.284 100.781 L 797.284 103.242 L 796.628 103.242 Z M 819.21 103.242 L 819.21 100.781 L 819.593 100.781 C 821.753 100.781 823.419 99.901 824.59 98.143 C 825.761 96.383 826.347 93.909 826.347 90.719 C 826.347 87.583 825.761 85.15 824.59 83.418 C 823.419 81.686 821.753 80.821 819.593 80.821 L 819.21 80.821 L 819.21 78.36 L 819.866 78.36 C 822.837 78.36 825.139 79.437 826.771 81.593 C 828.402 83.748 829.218 86.79 829.218 90.719 C 829.218 94.702 828.402 97.785 826.771 99.968 C 825.139 102.15 822.837 103.242 819.866 103.242 L 819.21 103.242 Z M 921.638 104.746 L 921.638 76.856 L 924.482 76.856 L 924.482 104.746 L 921.638 104.746 Z M 954.447 104.746 L 954.447 76.856 L 957.291 76.856 L 957.291 104.746 L 954.447 104.746 Z M 1020.046 104.746 L 1020.046 76.856 L 1022.89 76.856 L 1022.89 104.746 L 1020.046 104.746 Z M 1052.856 104.746 L 1052.856 76.856 L 1055.699 76.856 L 1055.699 104.746 L 1052.856 104.746 Z" style="fill: rgb(255, 192, 203);"/>
    <path style="fill: rgb(255, 192, 203);"/>
    <path d="M 63.301 131.051 L 63.301 128.508 L 76.973 128.508 L 76.973 131.051 L 63.301 131.051 Z M 112.514 131.051 L 112.514 128.508 L 127.827 128.508 L 127.827 131.051 L 112.514 131.051 Z M 127.278 131.051 L 127.278 128.508 L 142.591 128.508 L 142.591 131.051 L 127.278 131.051 Z M 150.738 132.746 L 150.738 104.856 L 153.581 104.856 L 153.581 132.746 L 150.738 132.746 Z M 183.547 132.746 L 183.547 104.856 L 186.391 104.856 L 186.391 132.746 L 183.547 132.746 Z M 210.923 131.051 L 210.923 128.508 L 226.235 128.508 L 226.235 131.051 L 210.923 131.051 Z M 225.687 131.051 L 225.687 128.508 L 240.999 128.508 L 240.999 131.051 L 225.687 131.051 Z M 260.136 131.051 L 260.136 128.508 L 273.808 128.508 L 273.808 131.051 L 260.136 131.051 Z M 309.35 131.051 L 309.35 128.508 L 324.663 128.508 L 324.663 131.051 L 309.35 131.051 Z M 324.095 131.051 L 324.095 128.508 L 339.408 128.508 L 339.408 131.051 L 324.095 131.051 Z M 347.554 132.746 L 347.554 104.856 L 350.398 104.856 L 350.398 132.746 L 347.554 132.746 Z M 380.364 132.746 L 380.364 104.856 L 383.207 104.856 L 383.207 132.746 L 380.364 132.746 Z M 407.759 131.051 L 407.759 128.508 L 423.071 128.508 L 423.071 131.051 L 407.759 131.051 Z M 422.523 131.051 L 422.523 128.508 L 437.835 128.508 L 437.835 131.051 L 422.523 131.051 Z M 538.976 131.051 L 538.976 128.508 L 554.289 128.508 L 554.289 131.051 L 538.976 131.051 Z M 553.33 131.051 L 553.33 128.508 L 571.103 128.508 L 571.103 131.051 L 553.33 131.051 Z M 570.145 131.051 L 570.145 128.508 L 585.457 128.508 L 585.457 131.051 L 570.145 131.051 Z M 604.575 131.051 L 604.575 128.508 L 618.247 128.508 L 618.247 131.051 L 604.575 131.051 Z M 637.384 131.051 L 637.384 128.508 L 652.697 128.508 L 652.697 131.051 L 637.384 131.051 Z M 652.148 131.051 L 652.148 128.508 L 667.461 128.508 L 667.461 131.051 L 652.148 131.051 Z M 719.388 131.051 L 719.388 128.508 L 734.701 128.508 L 734.701 131.051 L 719.388 131.051 Z M 734.152 131.051 L 734.152 128.508 L 749.465 128.508 L 749.465 131.051 L 734.152 131.051 Z M 757.611 132.746 L 757.611 104.856 L 760.455 104.856 L 760.455 132.746 L 757.611 132.746 Z M 790.421 132.746 L 790.421 104.856 L 793.264 104.856 L 793.264 132.746 L 790.421 132.746 Z M 801.602 131.106 L 812.595 106.496 L 815.493 106.496 L 804.501 131.106 L 801.602 131.106 Z M 834.22 131.051 L 834.22 128.508 L 849.533 128.508 L 849.533 131.051 L 834.22 131.051 Z M 848.555 131.051 L 848.555 128.508 L 866.328 128.508 L 866.328 131.051 L 848.555 131.051 Z M 865.37 131.051 L 865.37 128.508 L 880.682 128.508 L 880.682 131.051 L 865.37 131.051 Z M 921.638 132.746 L 921.638 104.856 L 924.482 104.856 L 924.482 132.746 L 921.638 132.746 Z M 954.447 132.746 L 954.447 104.856 L 957.291 104.856 L 957.291 132.746 L 954.447 132.746 Z M 965.438 131.051 L 965.438 128.508 L 980.75 128.508 L 980.75 131.051 L 965.438 131.051 Z M 980.183 131.051 L 980.183 128.508 L 995.495 128.508 L 995.495 131.051 L 980.183 131.051 Z M 1020.046 132.746 L 1020.046 104.856 L 1022.89 104.856 L 1022.89 132.746 L 1020.046 132.746 Z M 1052.856 132.746 L 1052.856 104.856 L 1055.699 104.856 L 1055.699 132.746 L 1052.856 132.746 Z M 1080.251 131.051 L 1080.251 128.508 L 1095.563 128.508 L 1095.563 131.051 L 1080.251 131.051 Z M 1094.604 131.051 L 1094.604 128.508 L 1112.378 128.508 L 1112.378 131.051 L 1094.604 131.051 Z M 1111.4 131.051 L 1111.4 128.508 L 1126.713 128.508 L 1126.713 131.051 L 1111.4 131.051 Z M 1178.659 131.051 L 1178.659 128.508 L 1193.972 128.508 L 1193.972 131.051 L 1178.659 131.051 Z M 1193.423 131.051 L 1193.423 128.508 L 1208.735 128.508 L 1208.735 131.051 L 1193.423 131.051 Z M 1227.873 131.051 L 1227.873 128.508 L 1241.545 128.508 L 1241.545 131.051 L 1227.873 131.051 Z" style="fill: rgb(255, 192, 203);"/>
    <path style="fill: rgb(255, 192, 203);"/>
    <path d="M 52.329 160.746 L 52.329 132.856 L 55.173 132.856 L 55.173 160.746 L 52.329 160.746 Z M 85.12 160.746 L 85.12 132.856 L 87.963 132.856 L 87.963 160.746 L 85.12 160.746 Z M 96.301 159.106 L 107.294 134.496 L 110.192 134.496 L 99.2 159.106 L 96.301 159.106 Z M 128.919 159.051 L 128.919 156.508 L 142.591 156.508 L 142.591 159.051 L 128.919 159.051 Z M 152.433 141.906 L 148.537 134.25 L 151.873 134.25 L 155.249 141.906 L 152.433 141.906 Z M 183.547 160.746 L 183.547 132.856 L 186.391 132.856 L 186.391 160.746 L 183.547 160.746 Z M 194.71 159.106 L 205.702 134.496 L 208.6 134.496 L 197.608 159.106 L 194.71 159.106 Z M 227.328 159.051 L 227.328 156.508 L 240.999 156.508 L 240.999 159.051 L 227.328 159.051 Z M 250.841 141.906 L 246.945 134.25 L 250.281 134.25 L 253.658 141.906 L 250.841 141.906 Z M 281.955 160.746 L 281.955 132.856 L 284.799 132.856 L 284.799 160.746 L 281.955 160.746 Z M 293.137 159.106 L 304.129 134.496 L 307.028 134.496 L 296.036 159.106 L 293.137 159.106 Z M 325.736 159.051 L 325.736 156.508 L 339.408 156.508 L 339.408 159.051 L 325.736 159.051 Z M 349.25 141.906 L 345.353 134.25 L 348.689 134.25 L 352.066 141.906 L 349.25 141.906 Z M 380.364 160.746 L 380.364 132.856 L 383.207 132.856 L 383.207 160.746 L 380.364 160.746 Z M 418.341 159.106 L 407.349 134.496 L 410.247 134.496 L 421.239 159.106 L 418.341 159.106 Z M 451.15 159.106 L 440.158 134.496 L 443.056 134.496 L 454.048 159.106 L 451.15 159.106 Z M 498.432 159.106 L 487.44 134.496 L 490.338 134.496 L 501.331 159.106 L 498.432 159.106 Z M 475.463 159.106 L 486.456 134.496 L 489.354 134.496 L 478.362 159.106 L 475.463 159.106 Z M 522.763 159.106 L 533.755 134.496 L 536.654 134.496 L 525.662 159.106 L 522.763 159.106 Z M 555.572 159.106 L 566.564 134.496 L 569.463 134.496 L 558.471 159.106 L 555.572 159.106 Z M 593.585 160.746 L 593.585 132.856 L 596.429 132.856 L 596.429 160.746 L 593.585 160.746 Z M 626.503 145.844 L 626.23 137.094 L 629.402 137.094 L 629.128 145.844 L 626.503 145.844 Z M 637.385 159.051 L 637.385 156.508 L 651.056 156.508 L 651.056 159.051 L 637.385 159.051 Z M 680.776 159.106 L 669.784 134.496 L 672.682 134.496 L 683.674 159.106 L 680.776 159.106 Z M 703.194 159.106 L 714.186 134.496 L 717.085 134.496 L 706.093 159.106 L 703.194 159.106 Z M 735.793 159.051 L 735.793 156.508 L 749.465 156.508 L 749.465 159.051 L 735.793 159.051 Z M 759.307 141.906 L 755.41 134.25 L 758.746 134.25 L 762.123 141.906 L 759.307 141.906 Z M 790.421 160.746 L 790.421 132.856 L 793.264 132.856 L 793.264 160.746 L 790.421 160.746 Z M 818.007 159.106 L 828.999 134.496 L 831.898 134.496 L 820.906 159.106 L 818.007 159.106 Z M 850.606 159.051 L 850.606 156.508 L 865.918 156.508 L 865.918 159.051 L 850.606 159.051 Z M 865.37 159.051 L 865.37 156.508 L 880.682 156.508 L 880.682 159.051 L 865.37 159.051 Z M 888.829 160.746 L 888.829 132.856 L 891.673 132.856 L 891.673 160.746 L 888.829 160.746 Z M 921.638 160.746 L 921.638 132.856 L 924.482 132.856 L 924.482 160.746 L 921.638 160.746 Z M 954.557 145.844 L 954.283 137.094 L 957.455 137.094 L 957.182 145.844 L 954.557 145.844 Z M 965.438 159.051 L 965.438 156.508 L 979.11 156.508 L 979.11 159.051 L 965.438 159.051 Z M 1008.81 159.106 L 997.818 134.496 L 1000.716 134.496 L 1011.708 159.106 L 1008.81 159.106 Z M 1020.047 160.746 L 1020.047 132.856 L 1022.89 132.856 L 1022.89 160.746 L 1020.047 160.746 Z M 1052.856 160.746 L 1052.856 132.856 L 1055.7 132.856 L 1055.7 160.746 L 1052.856 160.746 Z M 1064.038 159.106 L 1075.03 134.496 L 1077.928 134.496 L 1066.936 159.106 L 1064.038 159.106 Z M 1096.655 159.051 L 1096.655 156.508 L 1110.327 156.508 L 1110.327 159.051 L 1096.655 159.051 Z M 1140.028 159.106 L 1129.035 134.496 L 1131.934 134.496 L 1142.926 159.106 L 1140.028 159.106 Z M 1162.446 159.106 L 1173.438 134.496 L 1176.337 134.496 L 1165.344 159.106 L 1162.446 159.106 Z M 1195.064 159.051 L 1195.064 156.508 L 1208.736 156.508 L 1208.736 159.051 L 1195.064 159.051 Z M 1218.578 141.906 L 1214.681 134.25 L 1218.017 134.25 L 1221.394 141.906 L 1218.578 141.906 Z M 1249.672 160.746 L 1249.672 132.856 L 1252.516 132.856 L 1252.516 160.746 L 1249.672 160.746 Z" style="fill: rgb(255, 192, 203);"/>
    <path style="fill: rgb(255, 192, 203);"/>
    <path d="M 52.329 188.746 L 52.329 160.856 L 55.173 160.856 L 55.173 188.746 L 52.329 188.746 Z M 85.12 188.746 L 85.12 160.856 L 87.963 160.856 L 87.963 188.746 L 85.12 188.746 Z M 124.136 187.242 C 121.173 187.242 118.874 186.15 117.238 183.968 C 115.602 181.785 114.784 178.702 114.784 174.719 C 114.784 170.79 115.602 167.748 117.238 165.593 C 118.874 163.437 121.173 162.36 124.136 162.36 L 124.792 162.36 L 124.792 164.821 L 124.409 164.821 C 122.249 164.821 120.583 165.686 119.412 167.418 C 118.241 169.15 117.655 171.583 117.655 174.719 C 117.655 177.909 118.241 180.383 119.412 182.143 C 120.583 183.901 122.249 184.781 124.409 184.781 L 124.792 184.781 L 124.792 187.242 L 124.136 187.242 Z M 128.919 187.051 L 128.919 184.508 L 142.591 184.508 L 142.591 187.051 L 128.919 187.051 Z M 150.738 188.746 L 150.738 160.856 L 153.582 160.856 L 153.582 188.746 L 150.738 188.746 Z M 183.547 188.746 L 183.547 160.856 L 186.391 160.856 L 186.391 188.746 L 183.547 188.746 Z M 222.544 187.242 C 219.582 187.242 217.283 186.15 215.647 183.968 C 214.01 181.785 213.192 178.702 213.192 174.719 C 213.192 170.79 214.01 167.748 215.647 165.593 C 217.283 163.437 219.582 162.36 222.544 162.36 L 223.2 162.36 L 223.2 164.821 L 222.817 164.821 C 220.657 164.821 218.991 165.686 217.82 167.418 C 216.649 169.15 216.064 171.583 216.064 174.719 C 216.064 177.909 216.649 180.383 217.82 182.143 C 218.991 183.901 220.657 184.781 222.817 184.781 L 223.2 184.781 L 223.2 187.242 L 222.544 187.242 Z M 227.328 187.051 L 227.328 184.508 L 240.999 184.508 L 240.999 187.051 L 227.328 187.051 Z M 249.146 188.746 L 249.146 160.856 L 251.99 160.856 L 251.99 188.746 L 249.146 188.746 Z M 281.955 188.746 L 281.955 160.856 L 284.799 160.856 L 284.799 188.746 L 281.955 188.746 Z M 320.971 187.242 C 318.009 187.242 315.71 186.15 314.074 183.968 C 312.438 181.785 311.62 178.702 311.62 174.719 C 311.62 170.79 312.438 167.748 314.074 165.593 C 315.71 163.437 318.009 162.36 320.971 162.36 L 321.628 162.36 L 321.628 164.821 L 321.245 164.821 C 319.085 164.821 317.419 165.686 316.248 167.418 C 315.077 169.15 314.491 171.583 314.491 174.719 C 314.491 177.909 315.077 180.383 316.248 182.143 C 317.419 183.901 319.085 184.781 321.245 184.781 L 321.628 184.781 L 321.628 187.242 L 320.971 187.242 Z M 325.736 187.051 L 325.736 184.508 L 339.408 184.508 L 339.408 187.051 L 325.736 187.051 Z M 347.555 188.746 L 347.555 160.856 L 350.398 160.856 L 350.398 188.746 L 347.555 188.746 Z M 380.364 188.746 L 380.364 160.856 L 383.207 160.856 L 383.207 188.746 L 380.364 188.746 Z M 434.745 187.106 L 423.753 162.496 L 426.652 162.496 L 437.644 187.106 L 434.745 187.106 Z M 461.67 184.508 L 456.201 165.094 L 459.127 165.094 L 463.666 182.184 L 463.912 182.184 L 468.451 165.094 L 471.377 165.094 L 465.908 184.508 L 461.67 184.508 Z M 510.884 184.508 L 505.415 165.094 L 508.341 165.094 L 512.88 182.184 L 513.126 182.184 L 517.665 165.094 L 520.591 165.094 L 515.122 184.508 L 510.884 184.508 Z M 539.168 187.106 L 550.16 162.496 L 553.058 162.496 L 542.066 187.106 L 539.168 187.106 Z M 560.795 188.746 L 560.795 160.856 L 563.639 160.856 L 563.639 188.746 L 560.795 188.746 Z M 593.585 188.746 L 593.585 160.856 L 596.429 160.856 L 596.429 188.746 L 593.585 188.746 Z M 626.394 188.746 L 626.394 160.856 L 629.238 160.856 L 629.238 188.746 L 626.394 188.746 Z M 659.203 188.746 L 659.203 160.856 L 662.047 160.856 L 662.047 188.746 L 659.203 188.746 Z M 692.012 188.746 L 692.012 160.856 L 694.856 160.856 L 694.856 188.746 L 692.012 188.746 Z M 731.009 187.242 C 728.047 187.242 725.748 186.15 724.112 183.968 C 722.476 181.785 721.658 178.702 721.658 174.719 C 721.658 170.79 722.476 167.748 724.112 165.593 C 725.748 163.437 728.047 162.36 731.009 162.36 L 731.666 162.36 L 731.666 164.821 L 731.283 164.821 C 729.123 164.821 727.457 165.686 726.286 167.418 C 725.115 169.15 724.529 171.583 724.529 174.719 C 724.529 177.909 725.115 180.383 726.286 182.143 C 727.457 183.901 729.123 184.781 731.283 184.781 L 731.666 184.781 L 731.666 187.242 L 731.009 187.242 Z M 735.793 187.051 L 735.793 184.508 L 749.465 184.508 L 749.465 187.051 L 735.793 187.051 Z M 757.612 188.746 L 757.612 160.856 L 760.455 160.856 L 760.455 188.746 L 757.612 188.746 Z M 790.421 188.746 L 790.421 160.856 L 793.264 160.856 L 793.264 188.746 L 790.421 188.746 Z M 828.398 187.106 L 817.406 162.496 L 820.304 162.496 L 831.296 187.106 L 828.398 187.106 Z M 834.22 187.051 L 834.22 184.508 L 849.533 184.508 L 849.533 187.051 L 834.22 187.051 Z M 848.965 187.051 L 848.965 184.508 L 864.278 184.508 L 864.278 187.051 L 848.965 187.051 Z M 893.997 187.106 L 883.005 162.496 L 885.903 162.496 L 896.896 187.106 L 893.997 187.106 Z M 921.638 188.746 L 921.638 160.856 L 924.482 160.856 L 924.482 188.746 L 921.638 188.746 Z M 954.447 188.746 L 954.447 160.856 L 957.291 160.856 L 957.291 188.746 L 954.447 188.746 Z M 965.438 187.051 L 965.438 184.508 L 979.11 184.508 L 979.11 187.051 L 965.438 187.051 Z M 983.218 187.242 L 983.218 184.781 L 983.601 184.781 C 985.761 184.781 987.427 183.901 988.598 182.143 C 989.769 180.383 990.355 177.909 990.355 174.719 C 990.355 171.583 989.769 169.15 988.598 167.418 C 987.427 165.686 985.761 164.821 983.601 164.821 L 983.218 164.821 L 983.218 162.36 L 983.874 162.36 C 986.845 162.36 989.147 163.437 990.779 165.593 C 992.41 167.748 993.226 170.79 993.226 174.719 C 993.226 178.702 992.41 181.785 990.779 183.968 C 989.147 186.15 986.845 187.242 983.874 187.242 L 983.218 187.242 Z M 1020.047 188.746 L 1020.047 160.856 L 1022.89 160.856 L 1022.89 188.746 L 1020.047 188.746 Z M 1052.856 188.746 L 1052.856 160.856 L 1055.7 160.856 L 1055.7 188.746 L 1052.856 188.746 Z M 1091.872 187.242 C 1088.91 187.242 1086.611 186.15 1084.974 183.968 C 1083.338 181.785 1082.52 178.702 1082.52 174.719 C 1082.52 170.79 1083.338 167.748 1084.974 165.593 C 1086.611 163.437 1088.91 162.36 1091.872 162.36 L 1092.528 162.36 L 1092.528 164.821 L 1092.145 164.821 C 1089.985 164.821 1088.319 165.686 1087.148 167.418 C 1085.977 169.15 1085.391 171.583 1085.391 174.719 C 1085.391 177.909 1085.977 180.383 1087.148 182.143 C 1088.319 183.901 1089.985 184.781 1092.145 184.781 L 1092.528 184.781 L 1092.528 187.242 L 1091.872 187.242 Z M 1096.655 187.051 L 1096.655 184.508 L 1110.327 184.508 L 1110.327 187.051 L 1096.655 187.051 Z M 1114.436 187.242 L 1114.436 184.781 L 1114.818 184.781 C 1116.979 184.781 1118.644 183.901 1119.815 182.143 C 1120.986 180.383 1121.572 177.909 1121.572 174.719 C 1121.572 171.583 1120.986 169.15 1119.815 167.418 C 1118.644 165.686 1116.979 164.821 1114.818 164.821 L 1114.436 164.821 L 1114.436 162.36 L 1115.092 162.36 C 1118.063 162.36 1120.365 163.437 1121.996 165.593 C 1123.627 167.748 1124.443 170.79 1124.443 174.719 C 1124.443 178.702 1123.627 181.785 1121.996 183.968 C 1120.365 186.15 1118.063 187.242 1115.092 187.242 L 1114.436 187.242 Z M 1151.264 188.746 L 1151.264 160.856 L 1154.108 160.856 L 1154.108 188.746 L 1151.264 188.746 Z M 1190.28 187.242 C 1187.318 187.242 1185.019 186.15 1183.383 183.968 C 1181.747 181.785 1180.929 178.702 1180.929 174.719 C 1180.929 170.79 1181.747 167.748 1183.383 165.593 C 1185.019 163.437 1187.318 162.36 1190.28 162.36 L 1190.936 162.36 L 1190.936 164.821 L 1190.554 164.821 C 1188.393 164.821 1186.728 165.686 1185.557 167.418 C 1184.386 169.15 1183.8 171.583 1183.8 174.719 C 1183.8 177.909 1184.386 180.383 1185.557 182.143 C 1186.728 183.901 1188.393 184.781 1190.554 184.781 L 1190.936 184.781 L 1190.936 187.242 L 1190.28 187.242 Z M 1195.064 187.051 L 1195.064 184.508 L 1208.736 184.508 L 1208.736 187.051 L 1195.064 187.051 Z M 1216.882 188.746 L 1216.882 160.856 L 1219.726 160.856 L 1219.726 188.746 L 1216.882 188.746 Z M 1249.672 188.746 L 1249.672 160.856 L 1252.516 160.856 L 1252.516 188.746 L 1249.672 188.746 Z" style="fill: rgb(255, 192, 203);"/>
    <path style="fill: rgb(255, 192, 203);"/>
    <path d="M 52.329 216.746 L 52.329 188.856 L 55.173 188.856 L 55.173 216.746 L 52.329 216.746 Z M 63.301 215.051 L 63.301 212.508 L 76.972 212.508 L 76.972 215.051 L 63.301 215.051 Z M 85.119 216.746 L 85.119 188.856 L 87.963 188.856 L 87.963 216.746 L 85.119 216.746 Z M 106.692 215.106 L 95.7 190.496 L 98.598 190.496 L 109.59 215.106 L 106.692 215.106 Z M 112.514 215.051 L 112.514 212.508 L 127.827 212.508 L 127.827 215.051 L 112.514 215.051 Z M 127.278 215.051 L 127.278 212.508 L 142.591 212.508 L 142.591 215.051 L 127.278 215.051 Z M 149.589 218.469 L 150.683 209.035 L 153.855 209.035 L 152.214 218.469 L 149.589 218.469 Z M 161.728 215.051 L 161.728 212.508 L 175.4 212.508 L 175.4 215.051 L 161.728 215.051 Z M 183.547 216.746 L 183.547 188.856 L 186.39 188.856 L 186.39 216.746 L 183.547 216.746 Z M 205.1 215.106 L 194.108 190.496 L 197.006 190.496 L 207.999 215.106 L 205.1 215.106 Z M 210.923 215.051 L 210.923 212.508 L 226.235 212.508 L 226.235 215.051 L 210.923 215.051 Z M 225.687 215.051 L 225.687 212.508 L 240.999 212.508 L 240.999 215.051 L 225.687 215.051 Z M 247.997 218.469 L 249.091 209.035 L 252.263 209.035 L 250.622 218.469 L 247.997 218.469 Z M 260.136 215.051 L 260.136 212.508 L 273.808 212.508 L 273.808 215.051 L 260.136 215.051 Z M 281.955 216.746 L 281.955 188.856 L 284.799 188.856 L 284.799 216.746 L 281.955 216.746 Z M 303.528 215.106 L 292.535 190.496 L 295.434 190.496 L 306.426 215.106 L 303.528 215.106 Z M 309.35 215.051 L 309.35 212.508 L 324.663 212.508 L 324.663 215.051 L 309.35 215.051 Z M 324.095 215.051 L 324.095 212.508 L 339.407 212.508 L 339.407 215.051 L 324.095 215.051 Z M 346.406 218.469 L 347.5 209.035 L 350.671 209.035 L 349.031 218.469 L 346.406 218.469 Z M 358.545 215.051 L 358.545 212.508 L 372.217 212.508 L 372.217 215.051 L 358.545 215.051 Z M 380.363 216.746 L 380.363 188.856 L 383.207 188.856 L 383.207 216.746 L 380.363 216.746 Z M 451.15 215.106 L 440.157 190.496 L 443.056 190.496 L 454.048 215.106 L 451.15 215.106 Z M 456.953 215.051 L 456.953 212.508 L 470.625 212.508 L 470.625 215.051 L 456.953 215.051 Z M 473.549 215.106 L 484.541 190.496 L 487.44 190.496 L 476.448 215.106 L 473.549 215.106 Z M 500.344 215.106 L 489.352 190.496 L 492.251 190.496 L 503.243 215.106 L 500.344 215.106 Z M 506.167 215.051 L 506.167 212.508 L 519.839 212.508 L 519.839 215.051 L 506.167 215.051 Z M 522.763 215.106 L 533.755 190.496 L 536.653 190.496 L 525.661 215.106 L 522.763 215.106 Z M 560.795 216.746 L 560.795 188.856 L 563.638 188.856 L 563.638 216.746 L 560.795 216.746 Z M 571.785 215.051 L 571.785 212.508 L 587.098 212.508 L 587.098 215.051 L 571.785 215.051 Z M 593.639 213.192 L 593.639 188.856 L 596.374 188.856 L 596.374 213.192 L 593.639 213.192 Z M 586.12 215.051 L 586.12 212.508 L 603.893 212.508 L 603.893 215.051 L 586.12 215.051 Z M 602.935 215.051 L 602.935 212.508 L 618.247 212.508 L 618.247 215.051 L 602.935 215.051 Z M 626.394 216.746 L 626.394 188.856 L 629.238 188.856 L 629.238 216.746 L 626.394 216.746 Z M 659.203 216.746 L 659.203 188.856 L 662.047 188.856 L 662.047 216.746 L 659.203 216.746 Z M 670.193 215.051 L 670.193 212.508 L 683.865 212.508 L 683.865 215.051 L 670.193 215.051 Z M 692.012 216.746 L 692.012 188.856 L 694.856 188.856 L 694.856 216.746 L 692.012 216.746 Z M 713.585 215.106 L 702.592 190.496 L 705.491 190.496 L 716.483 215.106 L 713.585 215.106 Z M 719.388 215.051 L 719.388 212.508 L 734.701 212.508 L 734.701 215.051 L 719.388 215.051 Z M 734.152 215.051 L 734.152 212.508 L 749.465 212.508 L 749.465 215.051 L 734.152 215.051 Z M 756.463 218.469 L 757.557 209.035 L 760.728 209.035 L 759.088 218.469 L 756.463 218.469 Z M 768.602 215.051 L 768.602 212.508 L 782.274 212.508 L 782.274 215.051 L 768.602 215.051 Z M 790.42 216.746 L 790.42 188.856 L 793.264 188.856 L 793.264 216.746 L 790.42 216.746 Z M 823.23 216.746 L 823.23 188.856 L 826.073 188.856 L 826.073 216.746 L 823.23 216.746 Z M 834.22 215.051 L 834.22 212.508 L 849.533 212.508 L 849.533 215.051 L 834.22 215.051 Z M 848.555 215.051 L 848.555 212.508 L 866.328 212.508 L 866.328 215.051 L 848.555 215.051 Z M 865.37 215.051 L 865.37 212.508 L 880.682 212.508 L 880.682 215.051 L 865.37 215.051 Z M 883.606 215.106 L 894.598 190.496 L 897.497 190.496 L 886.505 215.106 L 883.606 215.106 Z M 921.638 216.746 L 921.638 188.856 L 924.482 188.856 L 924.482 216.746 L 921.638 216.746 Z M 932.628 215.051 L 932.628 212.508 L 946.3 212.508 L 946.3 215.051 L 932.628 215.051 Z M 955.869 212.781 C 955.313 212.781 954.837 212.583 954.44 212.187 C 954.043 211.79 953.845 211.314 953.845 210.758 C 953.845 210.192 954.043 209.714 954.44 209.322 C 954.837 208.93 955.313 208.735 955.869 208.735 C 956.434 208.735 956.913 208.93 957.304 209.322 C 957.696 209.714 957.892 210.192 957.892 210.758 C 957.892 211.314 957.696 211.79 957.304 212.187 C 956.913 212.583 956.434 212.781 955.869 212.781 Z M 965.438 215.051 L 965.438 212.508 L 980.75 212.508 L 980.75 215.051 L 965.438 215.051 Z M 980.182 215.051 L 980.182 212.508 L 995.495 212.508 L 995.495 215.051 L 980.182 215.051 Z M 998.419 215.106 L 1009.411 190.496 L 1012.31 190.496 L 1001.318 215.106 L 998.419 215.106 Z M 1020.046 216.746 L 1020.046 188.856 L 1022.89 188.856 L 1022.89 216.746 L 1020.046 216.746 Z M 1031.037 215.051 L 1031.037 212.508 L 1044.709 212.508 L 1044.709 215.051 L 1031.037 215.051 Z M 1052.855 216.746 L 1052.855 188.856 L 1055.699 188.856 L 1055.699 216.746 L 1052.855 216.746 Z M 1074.428 215.106 L 1063.436 190.496 L 1066.334 190.496 L 1077.326 215.106 L 1074.428 215.106 Z M 1080.251 215.051 L 1080.251 212.508 L 1095.563 212.508 L 1095.563 215.051 L 1080.251 215.051 Z M 1094.604 215.051 L 1094.604 212.508 L 1112.378 212.508 L 1112.378 215.051 L 1094.604 215.051 Z M 1111.4 215.051 L 1111.4 212.508 L 1126.712 212.508 L 1126.712 215.051 L 1111.4 215.051 Z M 1129.637 215.106 L 1140.629 190.496 L 1143.527 190.496 L 1132.535 215.106 L 1129.637 215.106 Z M 1172.836 215.106 L 1161.844 190.496 L 1164.743 190.496 L 1175.735 215.106 L 1172.836 215.106 Z M 1178.659 215.051 L 1178.659 212.508 L 1193.971 212.508 L 1193.971 215.051 L 1178.659 215.051 Z M 1193.423 215.051 L 1193.423 212.508 L 1208.735 212.508 L 1208.735 215.051 L 1193.423 215.051 Z M 1215.734 218.469 L 1216.827 209.035 L 1219.999 209.035 L 1218.359 218.469 L 1215.734 218.469 Z M 1249.672 216.746 L 1249.672 188.856 L 1252.516 188.856 L 1252.516 216.746 L 1249.672 216.746 Z" style="fill: rgb(255, 192, 203);"/>
    <path style="fill: rgb(255, 192, 203);"/>
    <path d="M 1178.659 243.051 L 1178.659 240.508 L 1193.971 240.508 L 1193.971 243.051 L 1178.659 243.051 Z M 1193.423 243.051 L 1193.423 240.508 L 1208.735 240.508 L 1208.735 243.051 L 1193.423 243.051 Z M 1211.659 243.106 L 1222.652 218.496 L 1225.55 218.496 L 1214.558 243.106 L 1211.659 243.106 Z M 1249.672 244.746 L 1249.672 216.856 L 1252.516 216.856 L 1252.516 244.746 L 1249.672 244.746 Z" style="fill: rgb(255, 192, 203);"/>
    <path style="fill: rgb(255, 192, 203);"/>
    <path d="M 1167.668 272.746 L 1167.668 244.856 L 1170.512 244.856 L 1170.512 272.746 L 1167.668 272.746 Z M 1178.659 271.051 L 1178.659 268.508 L 1193.971 268.508 L 1193.971 271.051 L 1178.659 271.051 Z M 1193.013 271.051 L 1193.013 268.508 L 1210.786 268.508 L 1210.786 271.051 L 1193.013 271.051 Z M 1209.827 271.051 L 1209.827 268.508 L 1225.14 268.508 L 1225.14 271.051 L 1209.827 271.051 Z M 1228.064 271.106 L 1239.056 246.496 L 1241.955 246.496 L 1230.962 271.106 L 1228.064 271.106 Z" style="fill: rgb(255, 192, 203);"/>
  </g>
</svg>